<?xml version="1.0" encoding="utf-8"?>
<svg version="1.1" x="0px" y="0px" viewBox="0 0 841.89 595.28" style="enable-background:new 0 0 841.89 595.28;" id="svg32" xmlns="http://www.w3.org/2000/svg">
  <defs id="defs36"/>
  <style type="text/css" id="style2">
	.st0{fill:#008D36;}
</style>
  <g id="Warstwa_1" transform="matrix(1, 0, 0, 1, -4.420384, -22.101979)">
    <g id="g22"/>
    <g id="g28" transform="matrix(5.635364, 0, 0, 5.635364, -1509.562156, -1238.216205)" style="">
      <path class="st0" d="M371.63,249.44l-57.81,20.28c-6.23,2.18-13.11-1.12-15.3-7.35v0c-2.18-6.23,1.12-13.11,7.35-15.3l57.81-20.28    c6.23-2.18,13.11,1.12,15.3,7.35v0C381.17,240.37,377.86,247.26,371.63,249.44z" id="path24"/>
      <path class="st0" d="M377.44,270.39h-61.27c-6.6,0-12,5.4-12,12v33.13c0,6.6,5.4,12,12,12h61.27c6.6,0,12-5.4,12-12v-33.13    C389.44,275.79,384.04,270.39,377.44,270.39z M363.9,304.57l-10.32,5.96l-10.32,5.96c-4.32,2.5-9.73-0.62-9.73-5.62v-11.92v-11.92    c0-4.99,5.4-8.11,9.73-5.62l10.32,5.96l10.32,5.96C368.22,295.84,368.22,302.08,363.9,304.57z" id="path26"/>
    </g>
  </g>
  <g id="Warstwa_2"/>
</svg>