<?xml version="1.0" encoding="utf-8"?>
<svg version="1.1" x="0px" y="0px" viewBox="0 0 841.89 595.28" style="enable-background:new 0 0 841.89 595.28;" id="svg32" xmlns="http://www.w3.org/2000/svg">
  <defs id="defs36"/>
  <style type="text/css" id="style2">
	.st0{fill:#008D36;}
</style>
  <g id="Warstwa_1" transform="matrix(2.941411, 0, 0, 3.251075, -852.18025, -604.269723)" style="">
    <g id="g22">
      <path class="st0" d="M428.24,295.46h-6.58v-4.4c0-1.28-0.07-2.08-0.21-2.39c-0.14-0.32-0.45-0.48-0.93-0.48    c-0.54,0-0.89,0.19-1.03,0.58c-0.15,0.39-0.22,1.22-0.22,2.5v11.75c0,1.23,0.07,2.03,0.22,2.41c0.15,0.38,0.47,0.56,0.98,0.56    c0.49,0,0.81-0.19,0.96-0.56c0.15-0.38,0.23-1.26,0.23-2.65v-3.18h6.58v0.99c0,2.62-0.19,4.47-0.55,5.57s-1.19,2.05-2.45,2.88    s-2.83,1.24-4.68,1.24c-1.93,0-3.52-0.35-4.77-1.05c-1.25-0.7-2.08-1.66-2.48-2.9s-0.61-3.09-0.61-5.57v-7.39    c0-1.82,0.06-3.19,0.19-4.1c0.12-0.91,0.5-1.79,1.12-2.63c0.62-0.84,1.48-1.51,2.58-1.99c1.1-0.48,2.36-0.73,3.79-0.73    c1.94,0,3.54,0.37,4.8,1.12s2.09,1.68,2.48,2.8s0.59,2.86,0.59,5.22V295.46z" id="path4"/>
      <path class="st0" d="M437.17,284.44v25.3h-6.58v-25.3H437.17z" id="path6"/>
      <path class="st0" d="M454.5,284.44v25.3h-5.77l-3.42-11.5v11.5h-5.5v-25.3h5.5l3.69,11.39v-11.39H454.5z" id="path8"/>
      <path class="st0" d="M457.14,284.44h10.97v5.06h-4.39v4.8h4.11v4.81h-4.11v5.56h4.83v5.06h-11.41V284.44z" id="path10"/>
      <path class="st0" d="M490.74,284.44v25.3h-5.75l-0.01-17.08l-2.29,17.08h-4.08l-2.41-16.69l-0.01,16.69h-5.75v-25.3h8.51    c0.25,1.52,0.51,3.31,0.78,5.38l0.93,6.43l1.51-11.81H490.74z" id="path12"/>
      <path class="st0" d="M504.75,284.44l3.76,25.3h-6.72l-0.35-4.55h-2.35l-0.4,4.55h-6.8l3.36-25.3H504.75z M501.26,300.71    c-0.33-2.86-0.67-6.41-1-10.62c-0.67,4.84-1.09,8.39-1.26,10.62H501.26z" id="path14"/>
      <path class="st0" d="M530.39,284.44v25.3h-6.58v-10.62h-1.97v10.62h-6.58v-25.3h6.58v9.05h1.97v-9.05H530.39z" id="path16"/>
      <path class="st0" d="M547.99,284.44v16.91c0,1.92-0.06,3.26-0.19,4.04c-0.12,0.78-0.5,1.57-1.11,2.39    c-0.62,0.82-1.42,1.44-2.43,1.86c-1.01,0.42-2.19,0.63-3.55,0.63c-1.51,0-2.84-0.25-4-0.75s-2.02-1.15-2.59-1.95    c-0.57-0.8-0.91-1.65-1.02-2.54c-0.1-0.89-0.16-2.76-0.16-5.62v-14.97h6.58v18.97c0,1.1,0.06,1.81,0.18,2.12    c0.12,0.31,0.36,0.46,0.73,0.46c0.42,0,0.68-0.17,0.8-0.51c0.12-0.34,0.18-1.14,0.18-2.4v-18.64H547.99z" id="path18"/>
      <path class="st0" d="M550.53,284.44h6.56c2.07,0,3.64,0.16,4.71,0.48c1.07,0.32,1.93,0.98,2.59,1.96    c0.66,0.98,0.98,2.57,0.98,4.75c0,1.48-0.23,2.51-0.7,3.09c-0.46,0.58-1.38,1.03-2.74,1.34c1.52,0.34,2.55,0.91,3.09,1.71    c0.54,0.8,0.81,2.02,0.81,3.67v2.35c0,1.71-0.2,2.98-0.59,3.8s-1.01,1.39-1.87,1.69c-0.85,0.3-2.6,0.45-5.25,0.45h-7.61V284.44z     M557.11,288.77v5.62c0.28-0.01,0.5-0.02,0.66-0.02c0.65,0,1.06-0.16,1.23-0.48c0.18-0.32,0.27-1.23,0.27-2.73    c0-0.79-0.07-1.35-0.22-1.66c-0.15-0.32-0.34-0.52-0.57-0.6C558.24,288.83,557.79,288.78,557.11,288.77z M557.11,298.33v7.08    c0.93-0.03,1.52-0.18,1.77-0.44c0.25-0.26,0.38-0.9,0.38-1.92v-2.36c0-1.08-0.12-1.74-0.34-1.97    C558.69,298.49,558.09,298.36,557.11,298.33z" id="path20"/>
    </g>
    <g id="g28">
      <path class="st0" d="M371.63,249.44l-57.81,20.28c-6.23,2.18-13.11-1.12-15.3-7.35v0c-2.18-6.23,1.12-13.11,7.35-15.3l57.81-20.28    c6.23-2.18,13.11,1.12,15.3,7.35v0C381.17,240.37,377.86,247.26,371.63,249.44z" id="path24"/>
      <path class="st0" d="M377.44,270.39h-61.27c-6.6,0-12,5.4-12,12v33.13c0,6.6,5.4,12,12,12h61.27c6.6,0,12-5.4,12-12v-33.13    C389.44,275.79,384.04,270.39,377.44,270.39z M363.9,304.57l-10.32,5.96l-10.32,5.96c-4.32,2.5-9.73-0.62-9.73-5.62v-11.92v-11.92    c0-4.99,5.4-8.11,9.73-5.62l10.32,5.96l10.32,5.96C368.22,295.84,368.22,302.08,363.9,304.57z" id="path26"/>
    </g>
  </g>
  <g id="Warstwa_2"/>
</svg>