<?xml version="1.0" encoding="UTF-8" standalone="no"?>
<!DOCTYPE svg PUBLIC "-//W3C//DTD SVG 1.1//EN" "http://www.w3.org/Graphics/SVG/1.1/DTD/svg11.dtd">
<svg width="100%" height="100%" viewBox="0 0 1024 1024" version="1.1" xmlns="http://www.w3.org/2000/svg" xmlns:xlink="http://www.w3.org/1999/xlink" xml:space="preserve" xmlns:serif="http://www.serif.com/" style="fill-rule:evenodd;clip-rule:evenodd;stroke-linejoin:round;stroke-miterlimit:2;">
    <g transform="matrix(0.876382,0,0,0.876382,234.169,-78.6176)">
        <g transform="matrix(1.136,0,0,1.064,115.599,23.2935)">
            <circle cx="545.357" cy="618.665" r="137.912" style="fill:rgb(37,37,37);"/>
        </g>
        <g transform="matrix(1,0,0,1,79.4376,1.1033)">
            <circle cx="88.591" cy="669.417" r="157.772" style="fill:rgb(37,37,37);"/>
        </g>
        <g transform="matrix(0.856132,0,0,0.865566,106.495,-41.9534)">
            <circle cx="291.598" cy="644.041" r="233.899" style="fill:rgb(37,37,37);"/>
        </g>
        <g transform="matrix(1,0,0,1,2.2066,-49.6485)">
            <circle cx="625.898" cy="573.43" r="109.227" style="fill:rgb(37,37,37);"/>
        </g>
        <g transform="matrix(0.955199,0,0,1,15.0925,0.564193)">
            <rect x="157.594" y="570.602" width="589.088" height="257.031" style="fill:rgb(37,37,37);"/>
        </g>
    </g>
    <g>
        <g transform="matrix(1.136,0,0,1.064,115.599,23.2935)">
            <circle cx="545.357" cy="618.665" r="137.912" style="fill:rgb(191,187,186);"/>
        </g>
        <g transform="matrix(1,0,0,1,79.4376,1.1033)">
            <circle cx="88.591" cy="669.417" r="157.772" style="fill:rgb(191,187,186);"/>
        </g>
        <g transform="matrix(0.856132,0,0,0.865566,106.495,-41.9534)">
            <circle cx="291.598" cy="644.041" r="233.899" style="fill:rgb(191,187,186);"/>
        </g>
        <g transform="matrix(1,0,0,1,2.2066,-49.6485)">
            <circle cx="625.898" cy="573.43" r="109.227" style="fill:rgb(191,187,186);"/>
        </g>
        <g transform="matrix(0.955199,0,0,1,15.0925,0.564193)">
            <rect x="157.594" y="570.602" width="589.088" height="257.031" style="fill:rgb(191,187,186);"/>
        </g>
    </g>
</svg>
